PathFileType	4	(X/Y/Z)	Patient4_TMGait_0pt6_02_left_30.trc.trc
DataRate	CameraRate	NumFrames	NumMarkers	Units	OrigDataRate	OrigDataStartFrame	OrigNumFrames
80.924855491329	80.924855491329	6	33	mm	80.924855491329	71	       141
Frame#	Time	Sacral			L.Shoulder			Chest			R.Shoulder			Neck			R.ASIS			L.ASIS			R.Thigh.Superior			R.Thigh.Lateral			R.Thigh.Inferior			R.Patella			L.Thigh.Superior			L.Thigh.Lateral			L.Thigh.Inferior			L.Patella			L.Shank.Superior			L.Shank.Lateral			L.Shank.Inferior			R.Shank.Superior			R.Shank.Lateral			R.Shank.Inferior			R.Heel			R.Midfoot.Superior			R.Midfoot.Lateral			R.Toe			L.Heel			L.Midfoot.Lateral			L.Midfoot.Superior			L.Toe			L.Elbow			L.Wrist			R.Elbow			R.Wrist			
		X1	Y1	Z1	X2	Y2	Z2	X3	Y3	Z3	X4	Y4	Z4	X5	Y5	Z5	X6	Y6	Z6	X7	Y7	Z7	X8	Y8	Z8	X9	Y9	Z9	X10	Y10	Z10	X11	Y11	Z11	X12	Y12	Z12	X13	Y13	Z13	X14	Y14	Z14	X15	Y15	Z15	X16	Y16	Z16	X17	Y17	Z17	X18	Y18	Z18	X19	Y19	Z19	X20	Y20	Z20	X21	Y21	Z21	X22	Y22	Z22	X23	Y23	Z23	X24	Y24	Z24	X25	Y25	Z25	X26	Y26	Z26	X27	Y27	Z27	X28	Y28	Z28	X29	Y29	Z29	X30	Y30	Z30	X31	Y31	Z31	X32	Y32	Z32	X33	Y33	Z33	

71	37.525000000000	848.938625918662	1010.108728767356	423.617715240994	1066.468921874825	1416.883184117397	230.897240844391	1155.747061679313	1346.541886303084	398.659928865137	1071.650677344160	1438.492729121860	563.116465607944	1066.261456923673	1484.825183266662	377.905187334015	1067.105885109466	937.266602562097	551.326603494163	1064.121358563431	953.698265472419	275.949079386318	1142.678442215123	770.068989245143	528.472494301796	1101.400055800405	649.401171783386	605.127464078919	1192.404263550552	612.942589097326	526.542385583994	1227.871674995086	532.158358478405	544.887499982746	1061.381658058283	729.557978336227	306.651357548130	943.111254114526	638.332139114878	242.973022599764	998.683215202498	543.493872883209	308.619093900978	981.457126443105	478.632114676532	319.284368208947	947.795510623933	413.217540710842	311.624347227834	844.621210242270	311.132357939274	260.007407914086	876.436076660786	195.622101560379	336.482415074361	1214.760985278430	444.272180288781	557.476280883750	1164.706527726003	330.657010324980	623.027322573936	1237.795373302136	246.089020572289	574.295180642640	1153.077841732957	56.265403507838	548.947564856287	1313.197624745685	135.556015228399	590.814290912828	1236.866257651530	57.128298566244	622.934200768733	1438.350291260878	101.519815568251	615.836379916800	729.044242462959	49.783771832076	374.743625252162	808.311959391098	39.988033624897	301.164457726126	892.442740752153	97.486754365039	330.298011185174	1019.207970719971	38.684821398036	314.088497575368	1034.996449742671	1073.630451407481	99.842018051982	1283.186807423320	1016.303862195441	98.277953743010	902.826699106665	1160.123232818246	712.322592070961	865.153122419320	902.227836349709	747.044018031561	
72	37.537357142857	850.408001332726	1007.808918334139	426.802172882083	1064.697689632335	1415.047704390565	232.787911219526	1155.108880424764	1345.598314377468	400.194423296563	1071.264901470456	1437.519581196658	564.962845959474	1064.848509146535	1483.253422055963	379.556106760994	1069.260272210022	934.713189796360	553.243290253246	1064.870834825198	952.638685310975	277.873817980080	1144.150738023173	766.450159943466	530.388034092446	1100.770357197111	645.248957390036	605.379033214185	1192.132713357947	608.930005663565	527.351117495390	1226.060079777840	527.566616301961	544.597958737124	1060.340904136426	728.044430019382	307.265252865794	940.347411252427	638.177938675327	244.100056425880	995.293943411003	542.510173154333	308.969901434939	977.473181430192	477.643690083974	319.556820651747	943.095205000496	412.616336916631	311.900509971206	838.568401988415	311.689884605568	260.576650860924	869.859474771389	195.629693443360	336.499261956306	1212.264566524205	439.234258596709	556.954695037400	1160.688193535363	325.949233103773	621.673441404420	1232.863143152073	240.872652923117	572.834574664525	1145.660378087943	53.050947658542	546.569850992200	1306.662588252200	129.499333924015	588.942007850906	1229.047207569549	52.827349644710	621.019477192731	1431.216397900246	93.560028106152	614.580852158019	721.678066254852	50.338375055059	374.758636912282	800.890888745139	40.238335181017	301.194443417740	885.148517135782	97.572652741726	330.237072265857	1011.728154306524	38.598081122029	314.070295517490	1036.420321899212	1071.316330362092	102.782585446521	1286.186183011755	1022.523905514914	102.314302637178	901.293877991586	1160.593009194487	714.231973829511	865.260860698199	901.898319755365	746.727252101645	
73	37.549714285714	851.987959792121	1005.527106522174	430.151863573170	1062.907462681519	1413.263289337036	234.902373216308	1154.581065757895	1344.658463946174	401.872041099194	1071.022289121020	1436.398234244087	567.022067440051	1063.475589748081	1481.683434304217	381.478218973086	1071.682935024226	932.123696576274	555.084349984902	1065.740190052524	951.541996020834	279.781858596511	1145.975661264142	762.816871809670	532.101558194698	1100.449303822226	641.237875678451	605.440419911396	1192.116538929761	605.051987362440	527.894019153256	1224.458580097397	522.895258425807	544.016107014318	1059.539258789572	726.489665234012	307.871247668196	937.867029249637	637.933898005088	245.357747968357	992.299437597277	541.440437617093	309.419535432701	973.905351093396	476.477553691671	319.961269694787	938.733242540518	411.881800240748	312.299461524555	832.760572164201	312.254026064848	261.261930818992	863.389615479271	195.604770136194	336.592916083974	1209.696823138721	434.064618405242	556.236647458780	1156.319384261123	321.347604097238	620.348297868236	1227.083621655084	235.457205068453	571.277810954442	1136.567568535550	50.067795977272	544.506642283059	1298.747311058539	123.209884969078	586.954378885702	1219.649975395312	48.693037827573	619.335802525684	1422.674550779012	84.993674789033	613.123432875471	714.319406939182	50.947176596075	374.782374004299	793.473955703118	40.517827982305	301.231627563358	877.870828585131	97.677711174892	330.187469379328	1004.240724750809	38.506946981398	314.050097092531	1037.584419993134	1069.001134116172	106.035864414500	1288.607715571166	1028.404378561786	106.434929082649	900.655003143858	1160.354574640619	716.400102638804	866.594716642376	900.834850869933	746.406015159212	
74	37.562071428571	853.620422600206	1003.346975244339	433.615825795918	1061.164032830222	1411.604426143934	237.238467021995	1154.195742146544	1343.758088004085	403.702273143629	1070.965797343441	1435.170142252370	569.299672675553	1062.218353766049	1480.182414360775	383.682057018666	1074.302584826869	929.610463840709	556.836398444421	1066.680039233267	950.439918796292	281.684210863872	1148.066180258782	759.275049999338	533.557223636282	1100.462313429259	637.541269395478	605.380076031452	1192.302922070016	601.431893219750	528.160140451027	1223.083058705879	518.339373463524	543.200157937126	1059.005844006494	724.955281262420	308.513535744634	935.761489905373	637.612158344612	246.750457590033	989.810358216949	540.314915504856	309.984782008225	970.879120649911	475.141456182243	320.495809218927	934.809195887537	411.024991713615	312.821374927843	827.292818331795	312.859189955064	262.050545820784	857.083142609958	195.574927233262	336.745792654401	1207.178049029685	429.011714056727	555.389776715634	1151.907281467105	317.035645449386	619.150256991053	1220.862106234012	230.128779800470	569.698027206247	1126.485629638007	47.438897418380	542.827628570855	1290.010652943289	117.092715959441	584.934380449285	1209.367436285513	44.953866602996	617.940368050149	1413.334738877124	76.413660247925	611.529384709524	706.982666998434	51.686616742492	374.799644777265	786.073884412120	40.852424336954	301.265587695869	870.644801123181	97.814288356832	330.124959268001	996.750935609730	38.412071688024	314.027152542974	1038.427969649363	1066.751189685333	109.589854586579	1290.413094292841	1033.840085001182	110.597173521984	900.967181189926	1159.405946193057	718.834780891899	869.154141459003	899.064971472489	746.138388232650	
75	37.574428571429	855.247368014309	1001.359780296095	437.142295693706	1059.536389180776	1410.156569618848	239.782176871915	1153.978292265073	1342.944295694485	405.686021851500	1071.133973462313	1433.901122112902	571.790830704930	1061.154283668354	1478.830368652260	386.162155871062	1077.032783421480	927.306332312358	558.506607961214	1067.639416105087	949.383952045794	283.599706580408	1150.329082904526	755.973130212953	534.718518628860	1100.846362938889	634.340382042728	605.276702922376	1192.650966963522	598.211375110363	528.159970838539	1221.961205397122	514.111777741578	542.236182493174	1058.767992934698	723.520993479239	309.242784104842	934.125942161424	637.237136092799	248.278348302900	987.949814222794	539.178347027078	310.672111388719	968.535799805235	473.657876012970	321.138985018212	931.432750506560	410.070517781179	313.451477281063	822.266103402753	313.556293535570	262.924239357156	851.010099812840	195.582670487612	336.928703661052	1204.828071934644	424.327743780983	554.491353692515	1147.730772032032	313.203455819130	618.164373861936	1214.568904500321	225.171777065074	568.167468203764	1116.047419188722	45.271732606181	541.556870926348	1280.957446218933	111.529367344893	582.978051201164	1198.823650690663	41.801848179443	616.860823774158	1403.738395067252	68.384519284759	609.903748134976	699.691298956014	52.657189729790	374.794763097244	778.708324339391	41.278714981458	301.285385333057	863.519149035275	97.996844044954	330.018468623831	989.266706224522	38.316026682360	314.000682601111	1038.890970556132	1064.643441456234	113.428986883994	1291.573525250263	1038.717421313051	114.759783039888	902.282261837871	1157.779262532332	721.524479265319	872.946779511853	896.647877936175	745.977223499678	
76	37.586785714286	856.819671308736	999.656433765963	440.682622886057	1058.091891643876	1409.008894641384	242.508735372381	1153.943987706068	1342.271837468602	407.815661299281	1071.554208925419	1432.676748326943	574.478488319323	1060.353095909459	1477.712343584263	388.896389600156	1079.781281426187	925.350098640514	560.124557894935	1068.573747900314	948.445126189834	285.552399378871	1152.668963491517	753.082182181258	535.577428286188	1101.635728053183	631.796771036225	605.212555411963	1193.128524530860	595.526132365986	527.930267897655	1221.114019819641	510.408180681622	541.229015289354	1058.847870537700	722.277866936164	310.106731843810	933.050123683637	636.842697929867	249.933960035716	986.844127633130	538.085041660801	311.470709349772	967.021365437429	472.062024215910	321.843930884359	928.715928479615	409.054734899214	314.155704690770	817.779551825015	314.409176914245	263.858797762840	845.250315955070	195.682902873354	337.101170999370	1202.739277623757	420.230577532489	553.621785443707	1143.997810445702	310.015717319684	617.457789925063	1208.490980148907	220.826444439205	566.753400640188	1105.763361086106	43.632730301562	540.679040607119	1271.986810656351	106.817056696717	581.185397397935	1188.510265359039	39.356855105534	616.095409926079	1394.304589416654	61.363594598217	608.368766771225	692.478638894467	53.978225998339	374.752834303343	771.399735722673	41.843512267309	301.280505329478	856.554166891345	98.240066778726	329.832598625824	981.798421948643	38.223315449395	313.970245851273	1038.919472588576	1062.763827705126	117.532796653050	1292.072932614577	1042.923394391547	118.885432383389	904.637562453655	1155.543450567328	724.439813260781	877.991297422066	893.676245357833	745.965507994948	
